simulation
nRows=49
nColumns=15
endheader
time  TH_x TH_y TH_z SC_y  SC_z  SC_x  AC_y  AC_z  AC_x  GH_y  GH_z  GH_yy  EL_x  PS_y
0.249922  0.000000  0.000000  0.000000  -45.529178  16.561256  23.959035  46.678043  -17.836965  -7.023344  -3.339392  30.279329  10.545050  32.935610  117.781285
0.250234  0.000000  0.000000  0.000000  -44.386951  16.090055  23.959035  42.476670  -31.371490  -12.804623  -2.410236  15.425457  22.683479  27.494717  118.470538
0.250546  0.000000  0.000000  0.000000  -48.797328  1.921898  23.959035  48.474905  -25.973406  -15.014432  -17.448359  14.562085  29.718219  27.352676  125.688638
0.250858  0.000000  0.000000  0.000000  -45.752936  10.207132  23.959035  42.294103  -31.504332  -15.997915  -17.076621  20.047711  19.078547  34.621752  121.568400
0.251170  0.000000  0.000000  0.000000  -25.234968  14.481739  23.959035  48.047586  -18.505957  -9.334622  -3.623143  29.194495  13.772494  24.074055  111.979150
0.251482  0.000000  0.000000  0.000000  -50.886956  17.771910  23.959035  43.910008  -33.405906  -9.231288  -7.419207  14.818045  24.334941  19.579640  128.603746
0.251794  0.000000  0.000000  0.000000  -45.244281  3.488499  23.959035  56.808748  -18.055239  -6.468637  -14.740533  24.360083  23.916596  19.790355  119.267400
0.252106  0.000000  0.000000  0.000000  -29.125053  9.139116  23.959035  46.281070  -22.291625  -11.697593  -11.504762  19.109556  10.722158  34.834570  123.046665
0.252418  0.000000  0.000000  0.000000  -44.516542  2.362237  23.959035  51.658637  -24.541590  -10.506919  -4.433889  22.458953  26.460367  22.122203  125.372350
0.252730  0.000000  0.000000  0.000000  -20.359753  9.094510  23.959035  42.259986  -21.161908  -15.645791  -8.177977  28.265034  21.423060  19.283907  126.929656
0.253042  0.000000  0.000000  0.000000  -35.532954  6.141819  23.959035  47.490844  -25.654500  -10.113837  -20.368701  24.476979  15.089553  16.881245  124.576830
0.253354  0.000000  0.000000  0.000000  -28.440041  20.095011  23.959035  40.895957  -33.049008  -7.694442  -16.500598  24.797156  16.967073  31.289954  127.673505
0.253666  0.000000  0.000000  0.000000  -34.818317  0.853215  4.461227  47.340701  6.749391  -2.466922  -7.793737  26.186469  13.749034  25.621307  121.575935
0.253978  0.000000  0.000000  0.000000  -34.818317  0.853215  -5.538773  46.079817  14.037484  4.499782  -7.793737  26.186469  13.749034  25.621307  121.575935
0.254290  0.000000  0.000000  0.000000  -22.448430  19.185963  -5.538773  41.029549  -6.748633  4.283868  -16.392190  33.199593  5.760162  29.658052  129.464112
0.254602  0.000000  0.000000  0.000000  -16.498910  14.218844  -5.538773  49.792699  -9.207038  11.644009  -15.066122  30.239329  15.732367  23.291193  130.713225
0.254914  0.000000  0.000000  0.000000  -35.094467  10.466195  -5.538773  52.471215  -6.728037  10.691671  0.074660  18.863081  14.080075  20.447091  122.973879
0.255226  0.000000  0.000000  0.000000  -47.216143  11.126959  -5.538773  53.022660  -6.839368  11.081251  -15.557496  27.198658  17.859184  31.047098  114.654071
0.255538  0.000000  0.000000  0.000000  -23.937659  6.728186  -5.538773  51.860234  -3.302071  8.419331  -13.678465  17.533383  18.787000  33.271822  114.940378
0.255850  0.000000  0.000000  0.000000  -17.816833  -8.445435  -5.538773  50.346954  -10.125103  -0.949225  -17.789029  32.057927  17.011600  29.231961  117.345439
0.256162  0.000000  0.000000  0.000000  -26.143871  17.003206  -5.538773  44.636862  -7.758302  8.058134  -12.212500  17.069226  11.039332  26.961993  119.879540
0.256474  0.000000  0.000000  0.000000  -32.808114  17.677507  -5.538773  48.241673  -9.952341  11.589202  -13.080285  25.880193  11.741194  19.535801  115.790192
0.256786  0.000000  0.000000  0.000000  -51.136773  11.970928  -5.538773  55.124841  3.323593  11.389195  -12.648169  34.182755  21.539601  23.327859  119.512248
0.257098  0.000000  0.000000  0.000000  -19.196459  19.500987  -5.538773  42.505635  -7.809141  2.104155  -10.253623  34.494137  17.759264  23.498578  125.717129
0.257410  0.000000  0.000000  0.000000  -20.831767  16.480227  -5.538773  44.657237  1.171678  6.996251  -3.841072  21.318433  6.374150  16.382679  113.010879
0.257722  0.000000  0.000000  0.000000  -30.124035  13.716224  -5.538773  49.367403  5.488639  8.490135  -3.103517  25.238903  16.726374  22.947870  112.196953
0.258034  0.000000  0.000000  0.000000  -24.478351  9.211801  -5.538773  55.250586  13.790504  11.121266  1.929209  27.190018  22.307922  28.703594  126.656735
0.258346  0.000000  0.000000  0.000000  -19.429813  20.690527  -5.538773  48.962952  -1.593457  13.988908  -7.930332  16.946374  21.052928  30.299999  122.465419
0.258658  0.000000  0.000000  0.000000  -32.972975  17.505260  -5.538773  51.551989  6.110366  14.217751  -2.428096  29.707894  10.508582  27.674813  120.502322
0.258970  0.000000  0.000000  0.000000  -14.971583  4.281732  -5.538773  46.254414  -8.275425  0.189511  -0.357927  25.122674  5.582952  16.940883  112.415543
0.259282  0.000000  0.000000  0.000000  -25.771211  18.597787  -5.538773  45.945962  -6.385658  6.870347  -12.119783  16.439608  15.955731  23.789741  111.803236
0.259594  0.000000  0.000000  0.000000  -48.036172  16.781259  -5.538773  47.731306  -4.797613  8.748972  -5.057264  29.704026  12.664015  30.771357  121.328077
0.259906  0.000000  0.000000  0.000000  -40.093423  5.129168  -5.538773  49.956350  -6.188735  4.571869  -0.178983  20.841351  9.735194  26.011466  117.434814
0.260218  0.000000  0.000000  0.000000  -52.962496  20.518410  -5.538773  51.481758  3.105488  13.030219  -9.479613  18.051668  9.491304  26.067180  131.507989
0.260530  0.000000  0.000000  0.000000  -15.326285  15.022417  -5.538773  43.445184  -9.262878  3.987396  -14.101901  23.270472  16.503929  16.583147  121.410778
0.260842  0.000000  0.000000  0.000000  -33.344088  18.858504  -5.538773  44.347407  -1.473782  5.672566  0.257329  30.169817  13.390772  26.144821  121.063703
0.261154  0.000000  0.000000  0.000000  -50.911854  13.253879  -5.538773  46.735415  -9.687620  1.206204  -15.258124  34.907631  9.575804  34.808501  126.896968
0.261466  0.000000  0.000000  0.000000  -34.818317  0.853215  0.461227  46.947726  9.682231  0.281616  -7.793737  26.186469  13.749034  25.621307  121.575935
0.261778  0.000000  0.000000  0.000000  -45.270421  2.190874  0.461227  55.281529  -12.063450  5.864124  -9.069463  17.910388  19.364246  32.803869  130.195167
0.262090  0.000000  0.000000  0.000000  -32.586062  9.592203  0.461227  53.741774  6.070989  5.021330  -0.061531  31.197256  13.274659  18.670588  129.169650
0.262402  0.000000  0.000000  0.000000  -26.942116  12.109528  0.461227  45.514185  -8.598593  1.978880  -13.638009  33.588863  17.360683  34.484901  115.982403
0.262715  0.000000  0.000000  0.000000  -36.522282  10.238830  0.461227  48.776380  -7.995422  3.050451  -15.253363  29.691071  19.299245  33.712828  119.476974
0.263027  0.000000  0.000000  0.000000  -19.762361  17.555662  0.461227  44.613394  1.726616  3.169874  -14.395994  25.018042  6.639236  26.291459  129.488853
0.263339  0.000000  0.000000  0.000000  -53.147973  14.908635  0.461227  50.739498  -12.198313  4.098964  1.834744  24.570856  13.937193  28.629853  116.765972
0.263651  0.000000  0.000000  0.000000  -31.630308  6.630289  0.461227  52.578096  -2.323779  3.589404  -13.405439  26.758822  4.843577  32.606685  118.859743
0.263963  0.000000  0.000000  0.000000  -21.403476  -1.238452  0.461227  52.873695  -3.061185  -1.071015  -15.512822  32.636719  13.817019  30.751579  129.088762
0.264275  0.000000  0.000000  0.000000  -19.293871  14.664879  0.461227  44.493864  -7.870568  0.088533  -8.430838  33.454365  12.389541  17.995926  119.970585
0.264587  0.000000  0.000000  0.000000  -54.143649  16.470601  0.461227  45.691263  -10.795039  -0.236297  2.001540  17.243929  12.867718  29.627845  115.656705
0.264899  0.000000  0.000000  0.000000  -33.023293  12.924211  0.461227  44.626357  -11.443471  1.815303  -17.700374  29.272526  14.308922  29.791655  129.792852
